<?xml version="1.0" standalone="no"?>
<!DOCTYPE svg PUBLIC "-//W3C//DTD SVG 20010904//EN"
 "http://www.w3.org/TR/2001/REC-SVG-20010904/DTD/svg10.dtd">
<svg version="1.0" xmlns="http://www.w3.org/2000/svg"
 width="512.000000pt" height="512.000000pt" viewBox="0 0 512.000000 512.000000"
 preserveAspectRatio="xMidYMid meet">

<g transform="translate(0.000000,512.000000) scale(0.100000,-0.100000)"
fill="#000000" stroke="none">
<path d="M769 4716 c-151 -62 -229 -173 -237 -338 l-4 -88 -32 0 c-55 0 -157
-30 -220 -63 -127 -67 -235 -212 -265 -355 -8 -37 -11 -499 -11 -1540 0 -1291
2 -1495 15 -1551 43 -183 186 -329 374 -385 50 -14 253 -16 2170 -16 2296 0
2154 -3 2276 56 77 37 181 140 223 220 65 125 62 39 62 1670 0 1013 -3 1499
-11 1540 -35 194 -197 363 -390 409 -35 8 -78 15 -95 15 l-32 0 -4 88 c-7 151
-77 261 -207 325 l-65 32 -267 3 -267 3 -21 -27 c-12 -15 -21 -33 -21 -40 0
-11 -22 -14 -100 -14 -90 0 -100 2 -100 18 0 10 -10 28 -23 40 l-23 22 -1335
0 -1334 0 -56 -24z m3940 -595 c107 -33 180 -101 233 -216 l23 -50 3 -1494 c3
-1664 6 -1565 -66 -1671 -43 -63 -125 -124 -196 -145 -74 -22 -4218 -23 -4291
-1 -107 33 -201 122 -241 230 -18 49 -19 102 -19 1566 l0 1515 27 58 c49 104
122 171 223 206 60 20 70 20 2152 21 2019 0 2093 -1 2152 -19z"/>
<path d="M1050 3910 c-65 -12 -129 -59 -159 -117 -11 -21 -19 -23 -85 -23
-150 0 -230 -31 -283 -112 l-28 -41 -6 -281 c-7 -309 -21 -410 -79 -568 -41
-113 -41 -176 3 -248 25 -42 44 -61 86 -82 52 -28 56 -28 231 -28 98 0 186 3
195 6 18 7 45 55 45 79 0 9 -11 27 -25 40 -24 24 -28 25 -184 25 -245 0 -255
9 -198 181 38 113 60 219 73 347 l7 72 449 0 450 0 -6 -27 c-2 -16 -8 -59 -11
-98 -4 -38 -18 -112 -31 -163 -51 -197 -111 -279 -220 -303 -33 -7 -67 -16
-77 -21 -44 -22 -39 -103 8 -128 34 -18 123 -4 194 31 129 64 205 198 263 461
17 78 21 141 25 385 5 285 5 293 -17 337 -45 93 -110 126 -263 134 -104 5
-108 6 -122 31 -41 79 -144 128 -235 111z m-165 -320 c11 -33 55 -80 99 -103
30 -15 59 -21 106 -22 84 0 142 31 185 97 l30 47 97 0 c93 1 97 0 117 -25 19
-24 21 -40 21 -145 l0 -119 -450 0 -450 0 0 120 c0 115 1 122 25 145 22 23 32
25 119 25 86 0 95 -2 101 -20z"/>
<path d="M4105 3910 c-69 -11 -123 -50 -168 -122 -16 -26 -19 -26 -136 -30
-114 -3 -121 -4 -163 -33 -24 -17 -54 -51 -68 -75 -24 -44 -25 -51 -31 -320
-8 -307 -18 -389 -74 -553 -42 -124 -44 -175 -9 -245 28 -55 92 -107 148 -117
17 -4 198 -5 401 -3 l370 3 67 33 c113 55 175 142 231 318 53 169 59 212 64
518 6 319 3 343 -50 403 -51 58 -95 73 -218 73 -105 0 -107 0 -124 28 -61 95
-142 136 -240 122z m-170 -320 c11 -33 55 -80 99 -103 57 -30 155 -30 212 0
44 23 88 70 99 103 6 18 15 20 103 20 85 0 98 -3 119 -22 22 -20 23 -29 23
-145 l0 -123 -451 0 -451 0 4 126 c4 161 7 164 143 164 85 0 94 -2 100 -20z
m650 -487 c-26 -235 -84 -414 -157 -483 -59 -55 -96 -60 -454 -60 -187 0 -334
4 -348 10 -50 19 -53 47 -13 167 39 118 62 227 73 346 l7 77 449 0 449 0 -6
-57z"/>
<path d="M3832 2933 c-15 -6 -42 -56 -42 -78 0 -9 13 -30 29 -46 l29 -29 241
0 c255 0 281 4 300 47 17 37 13 62 -14 88 l-24 25 -253 -1 c-139 0 -259 -3
-266 -6z"/>
<path d="M2465 3893 c-41 -21 -73 -51 -101 -95 l-23 -36 -119 -4 c-110 -3
-122 -5 -160 -31 -23 -15 -54 -46 -69 -69 l-28 -41 -7 -276 c-7 -309 -18 -396
-73 -558 -46 -134 -47 -189 -2 -263 25 -42 44 -60 87 -83 l54 -28 386 3 385 3
55 26 c117 56 180 139 239 315 58 174 66 239 66 565 l0 295 -28 42 c-15 23
-46 54 -69 69 -38 26 -50 28 -160 31 -116 4 -119 4 -135 30 -28 46 -66 83
-105 103 -47 24 -150 25 -193 2z m-110 -302 c3 -11 24 -38 47 -60 55 -56 130
-79 202 -62 64 15 115 50 146 101 l25 39 97 1 c136 0 138 -2 138 -172 l0 -128
-202 0 c-112 0 -314 3 -450 7 l-248 6 0 117 c0 104 2 120 21 144 20 25 24 26
119 26 89 0 99 -2 105 -19z m650 -498 c-16 -156 -64 -331 -115 -420 -21 -36
-45 -61 -77 -80 l-48 -28 -356 -3 c-349 -3 -356 -3 -382 18 -35 28 -34 47 7
172 33 96 57 215 71 351 l6 57 451 0 450 0 -7 -67z"/>
<path d="M2253 2928 c-12 -6 -27 -24 -34 -41 -10 -24 -10 -34 2 -56 28 -49 45
-52 306 -49 227 3 244 4 262 23 11 11 23 32 26 47 6 22 1 33 -23 58 l-30 30
-244 -1 c-148 0 -251 -4 -265 -11z"/>
<path d="M765 2915 c-27 -26 -31 -51 -14 -88 19 -43 45 -47 300 -47 l241 0 29
29 c32 32 35 47 18 84 -20 43 -45 47 -305 47 l-245 0 -24 -25z"/>
<path d="M1026 2250 c-46 -15 -100 -57 -126 -100 l-25 -39 -88 -1 c-117 0
-167 -14 -221 -61 -69 -61 -74 -84 -79 -384 -6 -292 -17 -380 -72 -542 -40
-115 -44 -178 -16 -239 24 -53 91 -109 146 -123 60 -15 686 -15 757 0 156 33
247 128 313 324 58 172 67 239 72 548 6 333 3 349 -73 416 -54 47 -103 61
-221 61 l-88 1 -26 43 c-48 78 -167 124 -253 96z m-137 -319 c29 -69 115 -121
201 -121 87 0 172 52 201 122 l12 30 99 -4 c136 -4 138 -7 138 -174 l0 -124
-450 0 -450 0 0 121 c0 66 5 129 11 140 15 30 45 38 140 38 86 1 87 1 98 -28z
m651 -439 c0 -52 -24 -199 -46 -282 -44 -168 -86 -239 -169 -283 -39 -21 -50
-22 -398 -22 l-359 0 -19 24 c-26 31 -24 46 15 164 30 90 55 215 72 359 l5 48
167 3 c92 1 294 4 450 5 264 2 282 1 282 -16z"/>
<path d="M769 1261 c-17 -13 -23 -29 -23 -56 0 -27 6 -43 23 -56 21 -17 44
-19 273 -19 140 0 257 4 267 10 10 5 24 22 30 39 10 24 10 34 -3 59 -8 16 -23
32 -31 36 -9 3 -128 6 -265 6 -227 0 -250 -2 -271 -19z"/>
<path d="M2496 2250 c-46 -15 -100 -57 -126 -100 l-25 -39 -88 -1 c-117 0
-167 -14 -221 -61 -69 -61 -74 -84 -79 -384 -6 -292 -17 -381 -72 -540 -40
-115 -44 -179 -16 -241 24 -53 91 -109 146 -123 60 -15 686 -15 757 0 139 30
226 108 289 261 75 183 99 340 99 668 0 279 -5 298 -79 362 -52 44 -103 58
-218 58 l-88 1 -28 44 c-16 25 -48 56 -72 71 -48 28 -132 39 -179 24z m507
-797 c-17 -183 -74 -387 -127 -456 -17 -22 -51 -51 -75 -64 -42 -22 -53 -23
-263 -23 -120 0 -218 2 -218 5 0 4 8 20 17 38 9 18 26 64 38 102 l22 70 191 3
191 2 20 27 c28 34 26 69 -4 98 -24 25 -27 25 -200 25 l-175 0 4 23 c3 12 8
61 11 110 l7 87 283 0 283 0 -5 -47z"/>
<path d="M4076 2250 c-46 -15 -93 -52 -122 -97 l-27 -43 -91 0 c-142 0 -202
-25 -261 -108 l-30 -44 -7 -281 c-7 -316 -18 -401 -74 -556 -50 -141 -43 -223
24 -294 60 -63 91 -72 278 -75 169 -4 171 -3 199 21 33 28 38 76 11 106 -16
17 -35 20 -188 23 -164 3 -170 4 -189 27 -26 31 -24 43 16 163 33 99 57 216
70 344 l7 61 246 6 c136 4 338 7 450 7 l202 0 0 -26 c0 -110 -57 -348 -106
-445 -42 -84 -131 -139 -224 -139 -61 0 -80 -95 -27 -134 25 -19 32 -19 97 -8
184 31 283 139 354 385 43 149 56 272 56 541 0 276 -3 292 -68 359 -47 48
-109 67 -226 67 l-91 1 -26 43 c-48 78 -167 124 -253 96z m-137 -319 c29 -69
115 -121 201 -121 85 0 154 40 202 118 l21 34 94 -4 c130 -4 133 -8 133 -174
l0 -124 -450 0 -450 0 0 119 c0 66 3 127 6 136 11 29 64 44 150 45 80 0 82 0
93 -29z"/>
<path d="M3832 1273 c-7 -3 -19 -18 -28 -35 -13 -25 -13 -35 -3 -59 6 -17 20
-34 30 -39 10 -6 127 -10 267 -10 229 0 252 2 273 19 32 26 32 86 0 112 -21
18 -43 19 -275 18 -138 0 -257 -3 -264 -6z"/>
</g>
</svg>
